mtllib Room_Prototype.mtl
o Default
v 13.538461685180664 5.515384674072266 -1.230769157409668
v 2.461538314819336 5.515384674072266 -6.769230842590332
v 2.461538314819336 5.515384674072266 -1.230769157409668
v 13.538461685180664 5.515384674072266 -6.769230842590332
v 2.461538553237915 -0.023076951503753662 -6.769230842590332
v 2.461538553237915 -0.023076951503753662 -1.230769157409668
v 13.538461685180664 -0.023077011108398438 -1.230769157409668
v 13.538461685180664 -0.023077011108398438 -6.769230842590332
v -8 0 -8
v 0 0 -16
v -8 0 -16
v 0 0 -8
v 8 0 -16
v 8 0 -8
v 16 0 -16
v 16 0 -8
v 24 0 -16
v 24 0 -8
v -8 0 0
v 0 0 0
v 8 0 0
v 16 0 0
v 24 0 0
v -8 0 8
v 0 0 8
v 8 0 8
v 16 0 8
v 24 0 8
v -16 0 -16
v 0 0 -32
v -16 0 -32
v -8 -16 8
v 8 -16 -4
v -8 -16 -4
v 7.5 -16 8
v 24 -16 -4
v 24 -16 8
v 32 0 -16
v 48 0 -32
v 32 0 -32
v 48 0 -16
v 32 0 -8
v 40 0 -16
v 40 0 -8
v 48 0 -8
v 32 0 0
v 40 0 0
v 48 0 0
v 32 0 8
v 40 0 8
v 48 0 8
v -16 0 16
v -16 0 8
v -8 0 16
v 0 0 16
v 8 0 16
v 16 0 16
v 24 0 16
v 32 0 16
v 40 0 16
v 48 0 16
v -16 0 -8
v -16 0 0
v 40 0 17
v 24 16 17
v 40 16 17
v 24 0 17
v 24 8 18
v 24 16 16
v 24 16 18
v 24 8 16
v 24 0 18
v 40 4.440892098500626e-16 18
v 32 4.440892098500626e-16 18
v 32 16 18
v 32 16 16
v 40 16 18
v 40 16 16
v 40 8 16
v 40 8 18
v 24 -8 8
v -8 -8 8
v -8 -8 -8
v -8 -16 -8
v -8 -8 -16
v -8 -16 -16
v 24 -16 -16
v 8 -16 -16
v 16 0 -32
v 16 16 16
v 48 16 16
v 20 0 -28
v 20 17.333332061767578 -32
v 20 17.333332061767578 -28
v 20 0 -32
v -16 0 -24
v -16 16 -32
v -16 16 -24
v 0 16 -32
v 16 16 -32
v 16 17.33333396911621 -28
v 16 17.33333396911621 -32
v 16 0 -28
v -32 0 0
v -32 0 -16
v -32 0 -24
v -32 16 0
v -16 16 0
v -32 16 -8
v -32 0 -8
v -32 16 -24
v -32 16 -16
v -33 6 -8
v -33 14 -16
v -33 14 -8
v -33 6 -16
v -32 14 -16
v -32 6 -16
v -32 6 -8
v -32 14 -8
v -32 15 -16
v -32 15 -8
v -32 5 -8
v -32 5 -16
v 0 16 16
v -16 16 16
v 32 16 -32
v 48 16 -32
v 48 16 -16
v 48 16 0
v 32 17 16
v 48 17 16
v 16 17 16
v 0 17 16
v -16 17 16
v 48 17 -16
v 48 17 -32
v 48 17 0
v 0 17 -32
v -16 17 -32
v 16 17 -32
v 32 17 -32
v -16 17 -24
v -24 17 -24
v -32 17 -24
v -24 16 -24
v -32 17 -8
v -32 17 0
v -16 17 0
v 0 17 0
v 16 17 0
v 32 17 0
v -16 17 -16
v 0 17 -16
v 16 17 -16
v 32 17 -16
v -32 17 -16
vt 0.53125 0
vt 0.59375 0.125
vt 0.53125 0.125
vt 0.59375 0
vt 0.5 0.125
vt 0.5625 0.1875
vt 0.5 0.1875
vt 0.5625 0.125
vt 0.625 0.1875
vt 0.625 0.125
vt 0.25 0.8125
vt 0.375 0.875
vt 0.25 0.875
vt 0.375 0.8125
vt 0 0.4375
vt 0.0625 0.5
vt 0 0.5
vt 0.0625 0.4375
vt 0.875 0.75
vt 1 0.875
vt 0.875 0.875
vt 1 0.75
vt 1 0.625
vt 0.875 0.5
vt 1 0.5
vt 0.875 0.625
vt 0.875 0.8125
vt 0.9375 0.875
vt 0.9375 0.8125
vt 0.375 0.375
vt 0.5 0.5
vt 0.375 0.5
vt 0.5 0.375
vt 0.1875 0.5625
vt 0.203125 0.625
vt 0.1875 0.625
vt 0.203125 0.5625
vt 0.375 0.6875
vt 0.625 0.75
vt 0.375 0.75
vt 0.625 0.6875
vt 0.5 0.75
vt 0.5 0.6875
vt 0.4375 0.75
vt 0.4375 0.6875
vt 0.625 0.625
vt 0.375 0.625
vt 0.625 0.5
vt 0.40625 0.5
vt 0.59375 0.625
vt 0.40625 0.625
vt 0.59375 0.5
vt 0.75 0.625
vt 0.6875 0.5
vt 0.75 0.5
vt 0.6875 0.625
vt 0.46875 0.125
vt 0.5 0.25
vt 0.46875 0.25
vt 0.875 0.125
vt 1 0.25
vt 0.875 0.25
vt 1 0.125
vt 0.9375 0.75
vt 0.75 0.3125
vt 0.875 0.4375
vt 0.75 0.4375
vt 0.875 0.3125
vt 0.9375 0.4375
vt 0.9375 0.3125
vt 1 0.4375
vt 1 0.3125
vt 0.125 0.9375
vt 0.1875 1
vt 0.125 1
vt 0.1875 0.9375
vt 0.9375 0.2265625
vt 0.875 0.234375
vt 0.875 0.2265625
vt 0.9375 0.234375
vt 1 0.2265625
vt 1 0.234375
vt 0.875 0.203125
vt 0.9375 0.1953125
vt 0.9375 0.203125
vt 0.875 0.1953125
vt 1 0.1953125
vt 1 0.203125
vt 1 0.171875
vt 0.9375 0.1640625
vt 1 0.1640625
vt 0.9375 0.171875
vt 0.9375 0.2890625
vt 0.9375 0.25
vt 0.875 0.2890625
vt 0.9375 0.3984375
vt 0.875 0.390625
vt 0.9375 0.390625
vt 0.875 0.3984375
vt 0.8125 0.3359375
vt 0.9375 0.4609375
vt 0.8125 0.4609375
vt 0.9375 0.3359375
vt 0.75 0.375
vt 0.875 0.375
vt 1 0.375
vt 0.75 0.25
vt 0.25 0.625
vt 0.375 0.6328125
vt 0.25 0.6328125
vt 0.3125 0.6328125
vt 0.3125 0.625
vt 0.25 0.6796875
vt 0.25 0.6875
vt 0.375 0.6796875
vt 0.3125 0.6875
vt 0.375 0.6953125
vt 0.3125 0.6953125
vt 0.25 0.6953125
vt 0.125 0.75
vt 0 0.875
vt 0 0.75
vt 0.125 0.875
vt 0.0625 0.875
vt 0.0625 0.75
vn 0 1 0
vn -1 -4e-8 0
vn 1 0 0
vn 0 0 1
vn 0 0 -1
vn 0 -1 0
vn -1 0 0
g Scene
usemtl MintJam Tilesheet
f 1/1/1 2/2/1 3/3/1
f 1/1/1 4/4/1 2/2/1
f 5/5/2 3/6/2 2/7/2
f 5/5/2 6/8/2 3/6/2
f 7/8/3 4/9/3 1/6/3
f 7/8/3 8/10/3 4/9/3
f 6/11/4 1/12/4 3/13/4
f 6/11/4 7/14/4 1/12/4
f 8/11/5 2/12/5 4/13/5
f 8/11/5 5/14/5 2/12/5
f 9/15/1 10/16/1 11/17/1
f 9/15/1 12/18/1 10/16/1
f 12/15/1 13/16/1 10/17/1
f 12/15/1 14/18/1 13/16/1
f 14/15/1 15/16/1 13/17/1
f 14/15/1 16/18/1 15/16/1
f 16/15/1 17/16/1 15/17/1
f 16/15/1 18/18/1 17/16/1
f 19/15/1 12/16/1 9/17/1
f 19/15/1 20/18/1 12/16/1
f 20/15/1 14/16/1 12/17/1
f 20/15/1 21/18/1 14/16/1
f 21/15/1 16/16/1 14/17/1
f 21/15/1 22/18/1 16/16/1
f 22/15/1 18/16/1 16/17/1
f 22/15/1 23/18/1 18/16/1
f 24/15/1 20/16/1 19/17/1
f 24/15/1 25/18/1 20/16/1
f 25/15/1 21/16/1 20/17/1
f 25/15/1 26/18/1 21/16/1
f 26/15/1 22/16/1 21/17/1
f 26/15/1 27/18/1 22/16/1
f 27/15/1 23/16/1 22/17/1
f 27/15/1 28/18/1 23/16/1
f 29/19/1 30/20/1 31/21/1
f 29/19/1 10/22/1 30/20/1
f 32/23/1 33/24/1 34/25/1
f 32/23/1 35/26/1 33/24/1
f 35/23/1 36/24/1 33/25/1
f 35/23/1 37/26/1 36/24/1
f 38/19/1 39/20/1 40/21/1
f 38/19/1 41/22/1 39/20/1
f 18/27/1 38/28/1 17/21/1
f 18/27/1 42/29/1 38/28/1
f 42/27/1 43/28/1 38/21/1
f 42/27/1 44/29/1 43/28/1
f 44/27/1 41/28/1 43/21/1
f 44/27/1 45/29/1 41/28/1
f 23/27/1 42/28/1 18/21/1
f 23/27/1 46/29/1 42/28/1
f 46/27/1 44/28/1 42/21/1
f 46/27/1 47/29/1 44/28/1
f 47/27/1 45/28/1 44/21/1
f 47/27/1 48/29/1 45/28/1
f 28/27/1 46/28/1 23/21/1
f 28/27/1 49/29/1 46/28/1
f 49/27/1 47/28/1 46/21/1
f 49/27/1 50/29/1 47/28/1
f 50/27/1 48/28/1 47/21/1
f 50/27/1 51/29/1 48/28/1
f 52/27/1 24/28/1 53/21/1
f 52/27/1 54/29/1 24/28/1
f 54/27/1 25/28/1 24/21/1
f 54/27/1 55/29/1 25/28/1
f 55/27/1 26/28/1 25/21/1
f 55/27/1 56/29/1 26/28/1
f 56/27/1 27/28/1 26/21/1
f 56/27/1 57/29/1 27/28/1
f 57/27/1 28/28/1 27/21/1
f 57/27/1 58/29/1 28/28/1
f 58/27/1 49/28/1 28/21/1
f 58/27/1 59/29/1 49/28/1
f 59/27/1 50/28/1 49/21/1
f 59/27/1 60/29/1 50/28/1
f 60/27/1 51/28/1 50/21/1
f 60/27/1 61/29/1 51/28/1
f 62/27/1 11/28/1 29/21/1
f 62/27/1 9/29/1 11/28/1
f 63/27/1 9/28/1 62/21/1
f 63/27/1 19/29/1 9/28/1
f 53/27/1 19/28/1 63/21/1
f 53/27/1 24/29/1 19/28/1
f 64/30/5 65/31/5 66/32/5
f 64/30/5 67/33/5 65/31/5
f 68/34/3 69/35/3 70/36/3
f 68/34/3 71/37/3 69/35/3
f 72/34/3 71/35/3 68/36/3
f 72/34/3 58/37/3 71/35/3
f 73/34/1 59/35/1 74/36/1
f 73/34/1 60/37/1 59/35/1
f 74/34/1 58/35/1 72/36/1
f 74/34/1 59/37/1 58/35/1
f 69/36/6 75/37/6 70/35/6
f 69/36/6 76/34/6 75/37/6
f 76/36/6 77/37/6 75/35/6
f 76/36/6 78/34/6 77/37/6
f 79/34/7 77/35/7 78/36/7
f 79/34/7 80/37/7 77/35/7
f 60/34/7 80/35/7 79/36/7
f 60/34/7 73/37/7 80/35/7
f 81/38/5 24/39/5 28/40/5
f 81/38/5 82/41/5 24/39/5
f 37/38/5 82/39/5 81/40/5
f 37/38/5 32/41/5 82/39/5
f 82/38/3 9/42/3 24/40/3
f 82/38/3 83/43/3 9/42/3
f 32/38/3 83/42/3 82/40/3
f 32/38/3 84/43/3 83/42/3
f 83/38/3 11/44/3 9/40/3
f 83/38/3 85/45/3 11/44/3
f 84/38/3 85/44/3 83/40/3
f 84/38/3 86/45/3 85/44/3
f 86/32/4 17/46/4 11/47/4
f 86/32/4 87/48/4 17/46/4
f 87/49/7 28/50/7 17/51/7
f 87/49/7 37/52/7 28/50/7
f 34/23/1 88/24/1 86/25/1
f 34/23/1 33/26/1 88/24/1
f 33/23/1 87/24/1 88/25/1
f 33/23/1 36/26/1 87/24/1
f 15/19/1 40/20/1 89/21/1
f 15/19/1 38/22/1 40/20/1
f 10/19/1 89/20/1 30/21/1
f 10/19/1 15/22/1 89/20/1
f 58/53/5 90/54/5 69/55/5
f 58/53/5 57/56/5 90/54/5
f 61/53/5 78/54/5 91/55/5
f 61/53/5 60/56/5 78/54/5
f 92/57/3 93/58/3 94/59/3
f 92/57/3 95/5/3 93/58/3
f 96/54/3 97/53/3 98/56/3
f 96/54/3 31/55/3 97/53/3
f 31/60/4 99/61/4 97/62/4
f 31/60/4 30/63/4 99/61/4
f 30/60/4 100/61/4 99/62/4
f 30/60/4 89/63/4 100/61/4
f 89/57/7 101/58/7 102/59/7
f 89/57/7 103/5/7 101/58/7
f 103/57/4 94/58/4 101/59/4
f 103/57/4 92/5/4 94/58/4
f 104/19/1 29/20/1 105/21/1
f 104/19/1 63/22/1 29/20/1
f 105/28/1 96/22/1 106/20/1
f 105/28/1 29/64/1 96/22/1
f 63/65/5 107/66/5 108/67/5
f 63/65/5 104/68/5 107/66/5
f 104/68/3 109/69/3 107/66/3
f 104/68/3 110/70/3 109/69/3
f 105/70/3 111/71/3 112/69/3
f 105/70/3 106/72/3 111/71/3
f 113/73/3 114/74/3 115/75/3
f 113/73/3 116/76/3 114/74/3
f 116/77/4 117/78/4 114/79/4
f 116/77/4 118/80/4 117/78/4
f 119/81/5 115/80/5 120/77/5
f 119/81/5 113/82/5 115/80/5
f 113/83/1 118/84/1 116/85/1
f 113/83/1 119/86/1 118/84/1
f 114/85/6 120/87/6 115/88/6
f 114/85/6 117/84/6 120/87/6
f 120/84/3 121/88/3 122/85/3
f 120/84/3 117/87/3 121/88/3
f 123/89/3 118/90/3 119/91/3
f 123/89/3 124/92/3 118/90/3
f 110/93/3 124/62/3 123/94/3
f 110/93/3 105/95/3 124/62/3
f 122/96/3 112/97/3 109/98/3
f 122/96/3 121/99/3 112/97/3
f 106/100/4 98/101/4 111/102/4
f 106/100/4 96/103/4 98/101/4
f 57/104/5 125/24/5 90/55/5
f 57/104/5 55/105/5 125/24/5
f 55/105/5 126/25/5 125/24/5
f 55/105/5 52/106/5 126/25/5
f 52/65/3 108/66/3 126/67/3
f 52/65/3 63/68/3 108/66/3
f 89/65/4 127/66/4 100/67/4
f 89/65/4 40/68/4 127/66/4
f 40/68/4 128/71/4 127/66/4
f 40/68/4 39/72/4 128/71/4
f 39/107/7 129/105/7 128/104/7
f 39/107/7 41/62/7 129/105/7
f 41/107/7 130/105/7 129/104/7
f 41/107/7 48/62/7 130/105/7
f 48/62/7 91/106/7 130/105/7
f 48/62/7 61/61/7 91/106/7
f 91/108/5 131/109/5 132/110/5
f 91/108/5 76/47/5 131/109/5
f 76/108/5 133/109/5 131/110/5
f 76/108/5 90/47/5 133/109/5
f 90/108/5 134/109/5 133/110/5
f 90/108/5 125/47/5 134/109/5
f 125/108/5 135/109/5 134/110/5
f 125/108/5 126/47/5 135/109/5
f 128/108/7 136/109/7 137/110/7
f 128/108/7 129/47/7 136/109/7
f 129/108/7 138/109/7 136/110/7
f 129/108/7 130/47/7 138/109/7
f 130/108/7 132/109/7 138/110/7
f 130/108/7 91/47/7 132/109/7
f 97/108/4 139/109/4 140/110/4
f 97/108/4 99/47/4 139/109/4
f 99/108/4 141/109/4 139/110/4
f 99/108/4 100/47/4 141/109/4
f 100/108/4 142/109/4 141/110/4
f 100/108/4 127/47/4 142/109/4
f 127/108/4 137/109/4 142/110/4
f 127/108/4 128/47/4 137/109/4
f 98/108/3 140/111/3 143/110/3
f 98/108/3 97/112/3 140/111/3
f 111/112/4 144/109/4 145/111/4
f 111/112/4 146/47/4 144/109/4
f 146/112/4 143/109/4 144/111/4
f 146/112/4 98/47/4 143/109/4
f 109/113/3 145/38/3 147/114/3
f 109/113/3 111/115/3 145/38/3
f 107/116/3 147/117/3 148/118/3
f 107/116/3 109/38/3 147/117/3
f 108/114/5 148/117/5 149/119/5
f 108/114/5 107/38/5 148/117/5
f 126/114/3 149/117/3 135/119/3
f 126/114/3 108/38/3 149/117/3
f 149/120/6 134/121/6 135/122/6
f 149/120/6 150/123/6 134/121/6
f 150/120/6 133/121/6 134/122/6
f 150/120/6 151/123/6 133/121/6
f 151/120/6 131/121/6 133/122/6
f 151/120/6 152/123/6 131/121/6
f 152/120/6 132/121/6 131/122/6
f 152/120/6 138/123/6 132/121/6
f 153/120/6 150/121/6 149/122/6
f 153/120/6 154/123/6 150/121/6
f 154/120/6 151/121/6 150/122/6
f 154/120/6 155/123/6 151/121/6
f 155/120/6 152/121/6 151/122/6
f 155/120/6 156/123/6 152/121/6
f 156/120/6 138/121/6 152/122/6
f 156/120/6 136/123/6 138/121/6
f 140/120/6 154/121/6 153/122/6
f 140/120/6 139/123/6 154/121/6
f 139/120/6 155/121/6 154/122/6
f 139/120/6 141/123/6 155/121/6
f 141/120/6 156/121/6 155/122/6
f 141/120/6 142/123/6 156/121/6
f 142/120/6 136/121/6 156/122/6
f 142/120/6 137/123/6 136/121/6
f 157/120/6 149/121/6 148/122/6
f 157/120/6 153/123/6 149/121/6
f 145/120/6 153/124/6 157/125/6
f 145/120/6 143/123/6 153/124/6
